<svg width="32" height="56" viewBox="0 0 32 56" fill="none" xmlns="http://www.w3.org/2000/svg">
<path d="M5.04 17.4V11.72C5.04 9.53333 5.38667 7.50666 6.08 5.64C6.82667 3.77333 8.08 1.93333 9.84 0.119998L12.96 2.44C11.7867 3.72 10.9333 4.92 10.4 6.04C9.86667 7.10666 9.54667 8.17333 9.44 9.24H13.2V17.4H5.04ZM18.32 17.4V11.72C18.32 9.53333 18.6667 7.50666 19.36 5.64C20.1067 3.77333 21.36 1.93333 23.12 0.119998L26.24 2.44C25.0667 3.72 24.2133 4.92 23.68 6.04C23.1467 7.10666 22.8267 8.17333 22.72 9.24H26.48V17.4H18.32Z" fill="#62E0D9"/>
</svg>
